#!OML:ASF F:\VICON\USERDATA\INSTALL\rory3\rory3.ASF
:FULLY-SPECIFIED
:DEGREES
69
root -0.03142604514379754 17.595686999335587 41.67665360526285 -1.506052033843707 0.6760554699308705 1.1656981584796537
lfemur 5.98948992701229 -7.708573657810181 -17.56675291810402
ltibia 3.911557023871694
lfoot -17.679414166202758 -0.4703662342793152
ltoes -12.259605983322933
rfemur -25.51481629061128 10.911478794291117 12.894103458343265
rtibia -4.374918380041514
rfoot -10.89458829011728 -23.438768042173105
rtoes 2.558727583178237
lowerback nan -1.704329725897796 -4.833388116225629
upperback 0.8681725612688479 -1.2240599373457108 1.3496390319440996
thorax -4.6806024594655895 -0.7871625427913178 4.725388057827634
lowerneck -16.230842964337274 -2.4852703681068355 -2.3020293558620644
upperneck 19.450732420145837 -3.3147093488126345 1.4552901325379657
head 8.70023853078963 -1.7195482811087226 0.38101033419720987
lclavicle 3.1524142676706285e-14 -1.954316756240959e-15
lhumerus -23.041946453879852 -3.457797164532817 82.61532050098039
lradius 36.17648461855159
lwrist 9.16396484952529
lhand -26.575994343550935 27.305741096130305
lfingers nan
lthumb -0.31501791692959197 57.12559387423946
rclavicle 3.295476441596373e-14 -4.624346481791503e-16
rhumerus -28.34494153134298 -17.83283207668956 -80.03134383378323
rradius 27.01589524658483
rwrist 6.213596431675591
rhand -17.880491272326424 nan
rfingers nan
rthumb 8.527881583513162 -4.2761065587081575
70
root -0.10163604982897106 17.550147510488525 41.809291699928856 -1.7635288116881331 0.03824478738528825 0.8537644373952591
lfemur 6.377665288537727 -8.601283908526007 -17.44092830622672
ltibia 6.336568908418155
lfoot -17.074974083051572 -1.1814404387152708
ltoes -13.197138376755493
rfemur -25.555055059601788 6.711892946663634 15.974009933340767
rtibia 1.4937245280935514
rfoot -8.766413585189154 -18.233678132885807
rtoes 5.629286912436527
lowerback nan -1.5412045827083825 -4.729068620303934
upperback 1.0661831436136269 -0.9484483381496456 1.3066969194579414
thorax -4.362227579962053 -0.680867032019427 4.536341678801246
lowerneck -16.65026554736086 -2.4457329326459005 -1.942089676844657
upperneck 19.5497891003488 -3.292128817052333 1.3188541845110806
head 8.787083339461299 -1.7040232466443248 0.28983264480618476
lclavicle -9.257025638436687e-16 1.1115918987500712e-15
lhumerus -22.34937719923905 -3.9654418753786222 82.60212025453282
lradius 35.67357924390127
lwrist 9.48793596754386
lhand -25.611999289097156 27.078310032474747
lfingers nan
lthumb 0.6159449858857913 56.89668271929301
rclavicle 7.050786925065793e-16 2.693377399805135e-15
rhumerus -28.259831829094452 -17.977555454993915 -80.06510185901709
rradius 27.11913474256393
rwrist 6.201622731225858
rhand -17.524835414186054 nan
rfingers nan
rthumb 8.88846290784134 -5.581948033358493
71
root -0.1667978843144326 17.56012541017728 42.891224567983635 -2.075483196861072 0.20000104613577818 0.14829095712586682
lfemur 5.738036231404026 -9.47236500583057 -16.745694708001235
ltibia 9.661544944339134
lfoot -15.507245717123919 -2.0433131238061826
ltoes -22.739905833536916
rfemur -24.515431842857794 7.09305979797732 17.600835977388783
rtibia 6.1567373682565645
rfoot -3.5332759936972806 -16.93720159082173
rtoes -3.01933409378518
lowerback nan -1.6978743038370325 -4.167403874695436
upperback 0.8885148661094759 -0.9974934011399652 1.6043457803039058
thorax -4.446570952429374 -0.7218544300323402 4.442943275079337
lowerneck -16.22854314329516 -2.4477732904833234 -2.2193644009819438
upperneck 19.64208653104838 -3.2533393801038235 1.386955318900716
head 8.775147449215693 -1.7021667229397517 0.3503286059401912
lclavicle 1.8174267276967298e-14 6.096127850129383e-15
lhumerus -23.115617102093523 -3.6190245113217774 82.73195870745934
lradius 35.175384134995824
lwrist 9.242508670446565
lhand -25.312059586333017 26.645667270119997
lfingers nan
lthumb 0.9208645519129346 56.53107090480786
rclavicle 1.9737482994510782e-14 7.42668400990745e-15
rhumerus -29.002889350205166 -18.409140314364922 -79.34332048010104
rradius 26.698265057436977
rwrist 7.35549827954718
rhand -17.863979750109852 nan
rfingers nan
rthumb 8.564618132951672 -4.70776153460532
72
root -0.2133067815645347 17.64495419701919 42.11812235422603 -2.4210222535145514 -0.23371373178938715 -2.145209519258743
lfemur 2.6725582162601818 -10.00478807492839 -14.770302817806124
ltibia 17.4781426871098
lfoot -10.837328770488142 -4.055981912072404
ltoes -20.660432442639348
rfemur -22.353109236819364 8.10506829716281 20.405740253142675
rtibia 7.0043364548124245
rfoot -0.9201972702244534 -13.17201169967198
rtoes -2.990970383097243
lowerback nan -1.6852191581250469 -1.3979445871680907
upperback 0.5905712123349215 -0.5837038709419506 2.476937561020292
thorax -4.772669310585978 -0.6087573702356526 3.4642711938043544
lowerneck -15.870048769248935 -2.310930030275392 -1.9937222018965794
upperneck 19.984911957466995 -2.968266758289091 0.9290338673432647
head 8.865194574148763 -1.6314355648971162 0.20229455106717353
lclavicle 2.1903253554905558e-15 4.892844935545275e-15
lhumerus -24.125188264052408 -2.0019611683264777 83.04421079775656
lradius 33.79027642142029
lwrist 7.591737547661303
lhand -29.00092828523311 24.72998511081566
lfingers nan
lthumb -2.6333620899717793 54.64775759874027
rclavicle 3.809504466506271e-15 6.390298496437343e-15
rhumerus -29.857183383115558 -19.164546178373094 -78.27443161371211
rradius 26.07579085569843
rwrist 8.264608231404837
rhand -17.870901371342065 nan
rfingers nan
rthumb 8.565328694918005 -5.285499389777829
73
root -0.27751714738827743 17.671036679592156 43.36920530785257 -2.5552503025742404 -1.0600679653209146 -2.567675858895742
lfemur -1.9319009459264649 -7.825775700309965 -14.135456468030394
ltibia 26.085776685238937
lfoot -2.70310759697938 -8.218929681783884
ltoes -24.734707456658604
rfemur -21.197927118410867 6.947213160237789 21.302577928997856
rtibia 10.78447812391087
rfoot -0.5240842877224718 -10.267595854559348
rtoes 2.6116826026567397
lowerback nan -1.478306951364305 -1.0744764834858487
upperback 0.5008280899840448 -0.29746041159998393 2.6737041524701426
thorax -4.708403361855103 -0.4606275946791747 3.479968670569516
lowerneck -16.154775206458478 -2.289939130599299 -1.9691238444711505
upperneck 20.09349913946377 -2.860173058264822 0.7249478043886107
head 8.920138348877972 -1.60538712477706 0.1413637024421146
lclavicle 9.481282018022506e-15 7.27800714349714e-15
lhumerus -25.616094119883826 0.5898163153846846 83.0495959248409
lradius 32.93161513828317
lwrist 7.208653661853015
lhand -29.467334744272183 23.234188217878096
lfingers nan
lthumb -3.0941593866810093 53.11111112141816
rclavicle 1.1265067731058606e-14 9.082259167054746e-15
rhumerus -30.393293637560905 -21.726989588123672 -76.7135463202677
rradius 25.3029789370497
rwrist 10.75434341782763
rhand -17.344114303817562 nan
rfingers nan
rthumb 9.090308407409145 -5.9712695187475
74
root -0.335011602973511 17.731805040796022 43.032844367370565 -3.244980221377631 -0.799964131516002 -3.8581210786580202
lfemur -6.427548939570032 -7.211570406995756 -11.83056455527355
ltibia 35.05338901798412
lfoot 6.657957762642632 -12.486032161904149
ltoes -11.183512237456798
rfemur -18.112100525198116 6.115929357223693 23.683350290506695
rtibia 11.959381536511973
rfoot -1.1250568136924057 -8.89086302982073
rtoes 6.704726826480566
lowerback nan -1.522025937339548 0.3483434316954923
upperback 0.7050805737915176 -0.11553472310701451 3.1524832539207246
thorax -4.664357868085247 -0.4329950802711373 3.03150557452536
lowerneck -16.510557840657107 -2.330805544829667 -1.9147597340050275
upperneck 20.10988273681053 -2.967150111591658 0.7982961809295188
head 8.947807539961392 -1.6239421227675377 0.15375963734475312
lclavicle -2.1633915567594394e-15 1.1177100642572849e-16
lhumerus -27.034868817576026 1.684468716133666 83.124736201124
lradius 32.980730340519614
lwrist 7.038937923153633
lhand -24.850733794448075 27.40869275890214
lfingers nan
lthumb 1.3326331434145384 57.208757779701614
rclavicle -5.69978843951497e-16 1.857520134622685e-15
rhumerus -30.511163316236253 -20.939599924410047 -77.05406756216755
rradius 25.934002681598866
rwrist 9.449799675864895
rhand -17.05428356707174 nan
rfingers nan
rthumb 9.371078730179056 -6.725571349756848
75
root -0.38652402688096926 17.781314431804798 42.81044449221725 -3.5386407503938027 -1.1923183427624686 -4.992102062158921
lfemur -11.4327241645047 -6.497757964443457 -9.943689733066293
ltibia 44.158165655809015
lfoot 10.744526852568395 -15.815720293343336
ltoes -1.911151893711378
rfemur -14.888974328659781 6.26310755169491 25.90564655013467
rtibia 11.201061039312762
rfoot -0.6900184570495105 -10.076533158470127
rtoes 11.164987638535331
lowerback nan -1.1993504581006666 1.3551683809668982
upperback 0.6906435822772894 0.5137946081852606 3.6128800314412146
thorax -4.797706991448617 -0.19241566760142637 2.7676444610409026
lowerneck -16.531780161794927 -2.398846951792163 -1.9327960884882323
upperneck 20.105126391814416 -3.092121187310834 0.8408539535236793
head 8.940805550836782 -1.6666553959336794 0.1607395395834594
lclavicle 2.0433406617864948e-14 1.2752970860507535e-14
lhumerus -28.245081387367232 0.41023525441412184 83.92786423955364
lradius 32.18143086231088
lwrist 8.126312977154189
lhand -26.10701128667476 25.612110041199394
lfingers nan
lthumb 0.11676819503563263 55.44743531206992
rclavicle 2.1872301512996365e-14 1.439578595052263e-14
rhumerus -30.110698106828508 -20.86594479021911 -77.02548521167695
rradius 25.50498840778964
rwrist 9.10453720342308
rhand -17.129788039038296 nan
rfingers nan
rthumb 9.292238819238435 -6.664037545970778
76
root -0.4247234725870351 17.813775787749357 43.03187274012249 -3.864831307430943 -1.8488736522782503 -5.6953941102138685
lfemur -15.436721617880934 -5.249830573571433 -8.74739673988745
ltibia 50.822590091314765
lfoot 5.154093213218446 -12.965309626802442
ltoes -6.945908646964799
rfemur -12.333482474060135 7.172127595727707 27.36046956037645
rtibia 11.367822026854665
rfoot -1.583895593746374 -11.427493482898054
rtoes 13.057877275039674
lowerback nan -0.7156677945823015 2.143811744885682
upperback 0.7398299476500263 1.2563197480232655 3.537409041373636
thorax -4.9991369925459965 0.1346205516271946 2.128825128892267
lowerneck -16.123704832094347 -2.4806859870080933 -1.7323604992988983
upperneck 19.887838617461444 -3.3291415866561826 0.9671987503879786
head 8.811605344819286 -1.7287836482520944 0.16911481638323722
lclavicle 6.08528170326076e-15 6.910276859554978e-15
lhumerus -28.942893084987432 -0.44918528146369896 84.28824438438313
lradius 31.54978929001293
lwrist 6.678283153951906
lhand -24.728126937693865 26.264406052277568
lfingers nan
lthumb 1.4506958516676167 56.11733353942485
rclavicle 7.501733115300699e-15 8.665252442433597e-15
rhumerus -29.477323827252533 -18.866845315564586 -78.27990201837174
rradius 25.999734541202752
rwrist 7.454823606635662
rhand -18.27517349753423 nan
rfingers nan
rthumb 8.199576569341112 -5.173841072464045
